<svg width="130.2" height="71.401" viewBox="0 0 130.2 71.401" xmlns="http://www.w3.org/2000/svg"><g id="svgGroup" stroke-linecap="round" fill-rule="evenodd" font-size="9pt" stroke="#ff0000" stroke-width="0mm" fill="#ff0000" style="stroke:#ff0000;stroke-width:0mm;fill:#ff0000"><path d="M 106.8 71.401 L 66.3 71.401 L 66.3 65.301 L 70.3 65.301 A 8.628 8.628 0 0 0 72.051 65.128 A 7.462 7.462 0 0 0 72.9 64.901 A 3.139 3.139 0 0 0 74.412 63.803 A 4.388 4.388 0 0 0 74.8 63.201 Q 75.5 61.901 75.5 59.301 L 75.5 11.701 Q 75.5 9.547 74.98 8.395 A 3.163 3.163 0 0 0 74.8 8.051 A 4.095 4.095 0 0 0 74.111 7.188 A 3.213 3.213 0 0 0 73 6.501 Q 71.9 6.101 70.8 6.101 L 66.3 6.101 L 66.3 0.001 L 99.9 0.001 A 72.393 72.393 0 0 1 108.022 0.424 Q 116.327 1.365 121.406 4.398 A 19.068 19.068 0 0 1 122.85 5.351 A 17.34 17.34 0 0 1 129.848 16.975 A 26.596 26.596 0 0 1 130.2 21.401 A 24.93 24.93 0 0 1 129.446 27.619 A 21.89 21.89 0 0 1 128.45 30.601 Q 126.7 34.801 122.85 37.951 A 22.193 22.193 0 0 1 118.452 40.719 Q 116.398 41.714 113.951 42.466 A 39.263 39.263 0 0 1 112.8 42.801 Q 107.98 44.122 101.529 44.416 A 84.109 84.109 0 0 1 97.7 44.501 L 95.5 44.501 L 95.5 59.801 Q 95.5 61.945 96.019 63.131 A 3.563 3.563 0 0 0 96.15 63.401 Q 96.8 64.601 97.85 64.951 A 6.93 6.93 0 0 0 99.729 65.292 A 7.997 7.997 0 0 0 100.1 65.301 L 106.8 65.301 L 106.8 71.401 Z M 40.5 71.401 L 0 71.401 L 0 65.301 L 4 65.301 A 8.628 8.628 0 0 0 5.751 65.128 A 7.462 7.462 0 0 0 6.6 64.901 A 3.139 3.139 0 0 0 8.112 63.803 A 4.388 4.388 0 0 0 8.5 63.201 Q 9.2 61.901 9.2 59.301 L 9.2 11.701 Q 9.2 9.547 8.68 8.395 A 3.163 3.163 0 0 0 8.5 8.051 A 4.095 4.095 0 0 0 7.811 7.188 A 3.213 3.213 0 0 0 6.7 6.501 Q 5.6 6.101 4.5 6.101 L 0 6.101 L 0 0.001 L 33.6 0.001 A 72.393 72.393 0 0 1 41.722 0.424 Q 50.027 1.365 55.106 4.398 A 19.068 19.068 0 0 1 56.55 5.351 A 17.34 17.34 0 0 1 63.548 16.975 A 26.596 26.596 0 0 1 63.9 21.401 A 24.93 24.93 0 0 1 63.146 27.619 A 21.89 21.89 0 0 1 62.15 30.601 Q 60.4 34.801 56.55 37.951 A 22.193 22.193 0 0 1 52.152 40.719 Q 50.098 41.714 47.651 42.466 A 39.263 39.263 0 0 1 46.5 42.801 Q 41.68 44.122 35.229 44.416 A 84.109 84.109 0 0 1 31.4 44.501 L 29.2 44.501 L 29.2 59.801 Q 29.2 61.945 29.719 63.131 A 3.563 3.563 0 0 0 29.85 63.401 Q 30.5 64.601 31.55 64.951 A 6.93 6.93 0 0 0 33.429 65.292 A 7.997 7.997 0 0 0 33.8 65.301 L 40.5 65.301 L 40.5 71.401 Z M 29.1 37.901 L 30.5 37.901 A 20.305 20.305 0 0 0 33.024 37.752 Q 34.322 37.589 35.431 37.248 A 11.299 11.299 0 0 0 36.15 37.001 Q 38.5 36.101 40.05 34.151 A 10.91 10.91 0 0 0 41.453 31.808 Q 41.942 30.717 42.281 29.421 A 18.629 18.629 0 0 0 42.35 29.151 Q 42.965 26.652 43.076 23.314 A 45.536 45.536 0 0 0 43.1 21.801 A 34.475 34.475 0 0 0 42.882 17.786 Q 42.377 13.487 40.696 10.898 A 9.581 9.581 0 0 0 40.35 10.401 A 8.832 8.832 0 0 0 35.024 7.027 A 14.07 14.07 0 0 0 31.9 6.701 L 29.1 6.701 L 29.1 37.901 Z M 95.4 37.901 L 96.8 37.901 A 20.305 20.305 0 0 0 99.324 37.752 Q 100.622 37.589 101.731 37.248 A 11.299 11.299 0 0 0 102.45 37.001 Q 104.8 36.101 106.35 34.151 A 10.91 10.91 0 0 0 107.753 31.808 Q 108.242 30.717 108.581 29.421 A 18.629 18.629 0 0 0 108.65 29.151 Q 109.265 26.652 109.376 23.314 A 45.536 45.536 0 0 0 109.4 21.801 A 34.475 34.475 0 0 0 109.182 17.786 Q 108.677 13.487 106.996 10.898 A 9.581 9.581 0 0 0 106.65 10.401 A 8.832 8.832 0 0 0 101.324 7.027 A 14.07 14.07 0 0 0 98.2 6.701 L 95.4 6.701 L 95.4 37.901 Z" vector-effect="non-scaling-stroke"/></g></svg>